# xmcd
#
# Track frame offsets:
#	150
#	13942
#	28995
#	46247
#	57810
#	69952
#	82702
#	97622
#	114880
#	131087
#
# Disc length: 1964 seconds
#
# Revision: 4
# Processed by: cddbd v1.5.2PL0 Copyright (c) Steve Scherf et al.
# Submitted via: audiograbber 1.83.01
#
DISCID=7007aa0a
DTITLE=Ray Price - American Originals - Ray Price
DYEAR=1990
DGENRE=Country
TTITLE0=Under Your Spell Again
TTITLE1=San Antonio Rose
TTITLE2=Faded Love
TTITLE3=Crazy Arms
TTITLE4=Talk To Your Heart
TTITLE5=Crazy
TTITLE6=Night Life
TTITLE7=For The Good Times
TTITLE8=Funny How Time Slips Away
TTITLE9=Release Me
EXTD=
EXTT0=
EXTT1=
EXTT2=
EXTT3=
EXTT4=
EXTT5=
EXTT6=
EXTT7=
EXTT8=
EXTT9=
PLAYORDER=
